<svg width="44" height="45" viewBox="0 0 44 45" fill="none" xmlns="http://www.w3.org/2000/svg">
<path d="M28.2334 25.4336C30.1783 25.4336 32.0437 26.2058 33.4189 27.5811C34.7942 28.9563 35.5664 30.8217 35.5664 32.7666V35.7002C35.5664 36.5102 34.9096 37.167 34.0996 37.167C33.2898 37.1668 32.6338 36.5101 32.6338 35.7002V32.7666C32.6337 31.5997 32.1698 30.4804 31.3447 29.6553C30.5196 28.8302 29.4003 28.3672 28.2334 28.3672H16.5C15.3331 28.3672 14.2138 28.8302 13.3887 29.6553C12.5636 30.4804 12.0997 31.5997 12.0996 32.7666V35.7002C12.0996 36.51 11.4436 37.1667 10.6338 37.167C9.82379 37.167 9.16703 36.5102 9.16699 35.7002V32.7666C9.16704 30.8218 9.93923 28.9563 11.3145 27.5811C12.6897 26.2058 14.5551 25.4336 16.5 25.4336H28.2334ZM22.3662 7.83301C26.4163 7.83301 29.7002 11.1169 29.7002 15.167C29.7 19.2169 26.4162 22.5 22.3662 22.5C18.3164 22.4998 15.0334 19.2168 15.0332 15.167C15.0332 11.117 18.3163 7.83322 22.3662 7.83301ZM22.3662 10.7666C19.9363 10.7668 17.9668 12.7371 17.9668 15.167C17.967 17.5968 19.9364 19.5662 22.3662 19.5664C24.7962 19.5664 26.7664 17.5969 26.7666 15.167C26.7666 12.7369 24.7963 10.7666 22.3662 10.7666Z" fill="#D9D9D9"/>
</svg>
