<svg width="44" height="45" viewBox="0 0 44 45" fill="none" xmlns="http://www.w3.org/2000/svg">
<path d="M22.333 6C24.7199 6 27.0095 6.94801 28.6973 8.63574C30.3851 10.3236 31.333 12.6131 31.333 15V19.5H32.833C35.3183 19.5 37.333 21.5147 37.333 24V34.5C37.333 36.9853 35.3183 39 32.833 39H11.833C9.34789 38.9998 7.33303 36.9852 7.33301 34.5V24C7.33301 21.5148 9.34788 19.5002 11.833 19.5H13.333V15C13.333 12.6131 14.2819 10.3236 15.9697 8.63574C17.6575 6.9482 19.9463 6.00008 22.333 6ZM11.833 22.5C11.0047 22.5002 10.333 23.1717 10.333 24V34.5C10.333 35.3283 11.0047 35.9998 11.833 36H32.833C33.6614 36 34.333 35.3284 34.333 34.5V24C34.333 23.1716 33.6614 22.5 32.833 22.5H11.833ZM22.333 9C20.7418 9.00008 19.216 9.63266 18.0908 10.7578C16.9657 11.883 16.333 13.4088 16.333 15V19.5H28.333V15C28.333 13.4089 27.7012 11.883 26.5762 10.7578C25.451 9.63259 23.9243 9 22.333 9Z" fill="#D9D9D9"/>
</svg>
