<svg width="25" height="24" viewBox="0 0 25 24" fill="none" xmlns="http://www.w3.org/2000/svg">
<path d="M12.5 3C17.4706 3 21.5 7.02944 21.5 12C21.5 16.9706 17.4706 21 12.5 21C7.52944 21 3.5 16.9706 3.5 12C3.5 7.02944 7.52944 3 12.5 3ZM12.5 4.63672C8.43318 4.63672 5.13672 7.93318 5.13672 12C5.13672 16.0668 8.43318 19.3633 12.5 19.3633C16.5668 19.3633 19.8633 16.0668 19.8633 12C19.8633 7.93318 16.5668 4.63672 12.5 4.63672ZM12.5 6.27246C12.9518 6.27247 13.3183 6.639 13.3184 7.09082V11.7656L15.2393 14.8389C15.4787 15.222 15.3625 15.7273 14.9795 15.9668C14.5963 16.2063 14.0911 16.0892 13.8516 15.7061L11.8066 12.4336C11.7254 12.3036 11.6816 12.1533 11.6816 12V7.09082C11.6817 6.63899 12.0482 6.27246 12.5 6.27246Z" fill="#818181"/>
</svg>
