<svg width="37" height="36" viewBox="0 0 37 36" fill="none" xmlns="http://www.w3.org/2000/svg">
<path d="M28.4385 4.5C29.5125 4.50006 30.5423 4.92705 31.3018 5.68652C32.0612 6.446 32.4882 7.47575 32.4883 8.5498V27.4502C32.4882 28.5242 32.0612 29.554 31.3018 30.3135C30.5423 31.0729 29.5125 31.4999 28.4385 31.5H23.0381C22.2927 31.4999 21.6887 30.8957 21.6885 30.1504C21.6885 29.4049 22.2926 28.7999 23.0381 28.7998H28.4385C28.7964 28.7997 29.1395 28.6574 29.3926 28.4043C29.6457 28.1512 29.788 27.8082 29.7881 27.4502V8.5498C29.788 8.19184 29.6457 7.84883 29.3926 7.5957C29.1395 7.34258 28.7964 7.20025 28.4385 7.2002H23.0381C22.2926 7.2001 21.6885 6.59513 21.6885 5.84961C21.6887 5.10426 22.2927 4.5001 23.0381 4.5H28.4385ZM15.334 10.2949C15.8612 9.76813 16.7161 9.76793 17.2432 10.2949L23.9932 17.0449C24.0451 17.0968 24.0902 17.1533 24.1318 17.2109C24.1415 17.2243 24.1519 17.2372 24.1611 17.251C24.1699 17.2642 24.1782 17.2776 24.1865 17.291C24.225 17.3532 24.258 17.4189 24.2861 17.4873C24.3105 17.5467 24.3302 17.6073 24.3457 17.6689C24.3518 17.6932 24.3585 17.7174 24.3633 17.7422C24.3798 17.8273 24.3887 17.9136 24.3887 18L24.3809 18.1377C24.3742 18.2035 24.3615 18.2674 24.3457 18.3301C24.3398 18.3536 24.3343 18.3772 24.3271 18.4004C24.2932 18.5097 24.2455 18.6126 24.1865 18.708C24.1782 18.7214 24.1699 18.7349 24.1611 18.748C24.1475 18.7684 24.1328 18.788 24.1182 18.8076C24.0801 18.8584 24.0393 18.9079 23.9932 18.9541L17.2432 25.7041C16.716 26.2313 15.8612 26.2313 15.334 25.7041C14.8069 25.1769 14.8068 24.3221 15.334 23.7949L19.7793 19.3496H6.83789C6.09249 19.3494 5.48829 18.7454 5.48828 18C5.48828 17.2545 6.09248 16.6506 6.83789 16.6504H19.7793L15.334 12.2041C14.8069 11.6769 14.8068 10.8221 15.334 10.2949Z" fill="#555555"/>
</svg>
