<svg width="33" height="33" viewBox="0 0 33 33" fill="none" xmlns="http://www.w3.org/2000/svg">
<circle cx="16.7266" cy="16.0684" r="16" fill="#FF6E37"/>
<path d="M20.7325 8.06738C21.4669 8.06739 22.1941 8.21355 22.8725 8.49761C23.5506 8.78165 24.1666 9.1982 24.685 9.72276C26.9045 11.9621 26.9541 15.6647 24.3241 18.3671L17.3417 25.4101C17.1781 25.5749 16.9562 25.6674 16.725 25.6674C16.4937 25.6673 16.2718 25.575 16.1083 25.4101L9.1258 18.3671C6.49591 15.6647 6.54553 11.9621 8.76489 9.72276C9.28331 9.19818 9.89928 8.78165 10.5775 8.49761C11.2559 8.21346 11.9836 8.06738 12.7181 8.06738C13.4526 8.06742 14.1798 8.21353 14.8582 8.49761C15.5366 8.78175 16.1529 9.1986 16.6714 9.72344L16.6741 9.72614L16.725 9.77815L16.7759 9.72614L16.7792 9.72344C17.2977 9.19864 17.9134 8.78175 18.5918 8.49761C19.2702 8.21346 19.9979 8.06738 20.7325 8.06738Z" fill="white"/>
</svg>
