<svg width="33" height="33" viewBox="0 0 33 33" fill="none" xmlns="http://www.w3.org/2000/svg">
<path fill-rule="evenodd" clip-rule="evenodd" d="M6.99489 5.19212C7.52 5.09852 8.06127 5.17532 8.53961 5.41129L8.55014 5.41648L27.5641 15.0755C27.852 15.222 28.0941 15.4454 28.263 15.7207C28.43 15.993 28.5193 16.3058 28.5212 16.6251C28.5212 16.6284 28.5212 16.6318 28.5212 16.6351L28.5212 16.6386C28.5206 16.9605 28.4313 17.2761 28.263 17.5505C28.0941 17.8258 27.8524 18.049 27.5646 18.1954L8.53965 27.873C8.0613 28.109 7.51999 28.1857 6.99489 28.0921C6.46979 27.9985 5.98839 27.7394 5.62103 27.3527C5.25368 26.966 5.01964 26.4719 4.95312 25.9427C4.88659 25.4135 4.99107 24.8769 5.25128 24.4112C5.25772 24.3997 5.26439 24.3883 5.27128 24.3771L10.0095 16.6355L5.27168 8.90778C5.26465 8.89631 5.25785 8.8847 5.25128 8.87295C4.99107 8.40735 4.88659 7.87073 4.95312 7.34152C5.01964 6.8123 5.25368 6.31823 5.62103 5.93152C5.98838 5.5448 6.46979 5.28571 6.99489 5.19212ZM25.1577 15.6351L7.65093 7.20303C7.55622 7.15731 7.44946 7.14261 7.34585 7.16108C7.24083 7.1798 7.14455 7.23162 7.07108 7.30896C6.99761 7.3863 6.9508 7.48512 6.9375 7.59096C6.92481 7.69191 6.94323 7.79421 6.99011 7.88424L11.9756 15.6351H25.1577ZM11.926 17.6351H25.1584L7.65075 26.0813C7.55608 26.1269 7.44939 26.1416 7.34585 26.1231C7.24083 26.1044 7.14455 26.0526 7.07108 25.9752C6.99761 25.8979 6.9508 25.7991 6.9375 25.6932C6.9248 25.5922 6.94326 25.4898 6.99024 25.3997L11.926 17.6351Z" fill="#FF6E37"/>
</svg>
