<svg width="43" height="43" viewBox="0 0 43 43" fill="none" xmlns="http://www.w3.org/2000/svg">
<path fill-rule="evenodd" clip-rule="evenodd" d="M5.72401 34.5788C5.59823 33.8732 5.70143 33.1458 6.01852 32.503L6.0255 32.4889L19.0049 6.93887C19.2016 6.55207 19.5018 6.22664 19.8718 5.99976C20.2377 5.77535 20.658 5.65541 21.0871 5.65283C21.0915 5.65279 21.096 5.65278 21.1005 5.65278L21.1052 5.6528C21.5378 5.65353 21.9618 5.77358 22.3306 5.99976C22.7005 6.22664 23.0005 6.55147 23.1972 6.93828L36.2014 32.503C36.5185 33.1458 36.6216 33.8732 36.4958 34.5788C36.3701 35.2844 36.0219 35.9313 35.5023 36.4249C34.9826 36.9185 34.3187 37.233 33.6076 37.3224C32.8965 37.4118 32.1754 37.2714 31.5497 36.9217C31.5342 36.9131 31.5189 36.9041 31.5038 36.8949L21.1011 30.5279L10.7169 36.8943C10.7015 36.9038 10.6859 36.9129 10.6701 36.9217C10.0445 37.2714 9.3234 37.4118 8.61226 37.3224C7.90113 37.233 7.23723 36.9185 6.71758 36.4249C6.19793 35.9313 5.84978 35.2844 5.72401 34.5788ZM19.7568 10.1725L8.42617 33.6972C8.36474 33.8245 8.34498 33.9679 8.3698 34.1072C8.39496 34.2483 8.46459 34.3777 8.56852 34.4764C8.67245 34.5751 8.80523 34.638 8.94745 34.6559C9.0831 34.6729 9.22056 34.6482 9.34155 34.5852L19.7568 27.886L19.7568 10.1725ZM22.4443 27.9526L22.4443 10.1716L33.7938 33.6975C33.8551 33.8247 33.8748 33.968 33.85 34.1072C33.8249 34.2483 33.7553 34.3777 33.6513 34.4764C33.5474 34.5751 33.4146 34.638 33.2724 34.6559C33.1366 34.673 32.999 34.6481 32.878 34.585L22.4443 27.9526Z" fill="#818181"/>
</svg>
