<svg width="37" height="36" viewBox="0 0 37 36" fill="none" xmlns="http://www.w3.org/2000/svg">
<path fill-rule="evenodd" clip-rule="evenodd" d="M14.382 18C14.382 20.7123 16.5788 22.9091 19.2911 22.9091C21.9911 22.9091 24.2002 20.7123 24.2002 18C24.2002 15.2878 22.0033 13.0909 19.2911 13.0909C16.5788 13.0909 14.382 15.2878 14.382 18ZM16.8365 18C16.8365 16.65 17.9411 15.5455 19.2911 15.5455C20.6411 15.5455 21.7456 16.65 21.7456 18C21.7456 19.35 20.6411 20.4546 19.2911 20.4546C17.9411 20.4546 16.8365 19.35 16.8365 18Z" fill="#555555"/>
<path fill-rule="evenodd" clip-rule="evenodd" d="M19.021 31.5H19.561C20.5428 31.5 21.4633 31.1195 22.1751 30.42C22.8746 29.7205 23.2551 28.8 23.2551 27.8182V27.585C23.2551 27.3641 23.3042 27.1555 23.4146 26.9714C23.5251 26.7873 23.6724 26.6277 23.8687 26.5173L24.3965 26.2105C24.7769 26.0018 25.2187 25.9773 25.6606 26.235L25.8078 26.3086C26.6424 26.7873 27.661 26.9223 28.5937 26.6768C29.551 26.4314 30.3365 25.8177 30.8396 24.9586L31.0974 24.4923C31.5883 23.6455 31.7233 22.6514 31.4656 21.7064C31.2078 20.7614 30.5942 19.9636 29.7106 19.4482L29.5633 19.3745C29.3669 19.2641 29.2196 19.1045 29.1092 18.9205C29.011 18.7241 28.9496 18.5155 28.9496 18.2945V17.6809C28.9374 17.4723 28.9987 17.2514 29.1092 17.0673C29.2196 16.8832 29.3669 16.7359 29.5756 16.6132L29.7596 16.4905C30.6065 15.9995 31.2078 15.2018 31.4656 14.2568C31.7233 13.3118 31.5883 12.3177 31.0974 11.4709L30.8274 11.0045C30.3365 10.1577 29.5387 9.55636 28.5937 9.29864C27.6487 9.04091 26.6424 9.17591 25.8324 9.64227L25.6115 9.765C25.231 9.97364 24.7524 9.97364 24.3842 9.765L23.8565 9.45818C23.6601 9.36 23.5128 9.20045 23.4024 9.01636C23.3042 8.83227 23.2428 8.61136 23.2428 8.40273V8.18182C23.2428 7.2 22.8624 6.27955 22.1628 5.58C21.4633 4.88045 20.5428 4.5 19.561 4.5H19.021C18.0392 4.5 17.1065 4.88045 16.4192 5.58C15.7196 6.27955 15.3392 7.2 15.3392 8.18182V8.40273C15.3392 8.61136 15.2778 8.83227 15.1796 9.01636C15.0692 9.20045 14.9096 9.36 14.7256 9.47045L14.1978 9.765C13.8174 9.98591 13.3756 10.0105 12.9215 9.75273L12.7742 9.67909C11.9274 9.18818 10.9333 9.05318 9.98828 9.31091C9.05555 9.55636 8.23328 10.1823 7.75464 11.0168L7.48464 11.4832C6.99374 12.33 6.87101 13.3241 7.11646 14.2691C7.37419 15.2264 7.97555 16.0118 8.77328 16.4782L9.01874 16.6377C9.20283 16.7359 9.36237 16.8955 9.44828 17.0673C9.54646 17.2514 9.60783 17.46 9.60783 17.6686V18.3068C9.60783 18.5155 9.55874 18.7364 9.44828 18.9205C9.33783 19.1168 9.19055 19.2641 8.98192 19.3868L8.82237 19.485C7.97555 19.9759 7.37419 20.7736 7.11646 21.7186C6.85874 22.6759 6.99374 23.6577 7.48464 24.5168L7.76692 24.9709C8.24555 25.8177 9.06783 26.4314 10.0006 26.6891C10.9456 26.9468 11.9396 26.8118 12.7496 26.3455L12.9706 26.2227C13.351 26.0141 13.8296 26.0141 14.1978 26.2227L14.7256 26.5295C14.9219 26.64 15.0692 26.7995 15.1796 26.9836C15.2778 27.1677 15.3392 27.3886 15.3392 27.5973V27.8182C15.3392 28.8 15.7196 29.7205 16.4192 30.42C17.1187 31.1195 18.0392 31.5 19.021 31.5ZM15.4251 24.0995C14.8606 23.7805 14.2346 23.6086 13.5842 23.6086C12.9337 23.6086 12.2956 23.7805 11.7924 24.0873L11.5715 24.21C11.2892 24.3695 10.9578 24.4186 10.6387 24.3327C10.3196 24.2468 10.0496 24.0382 9.8901 23.7559L9.6201 23.2895C9.46055 23.0073 9.41146 22.6759 9.49737 22.3568C9.58328 22.0377 9.77964 21.7677 10.0865 21.5959L10.246 21.4977C10.8106 21.1786 11.2769 20.7123 11.596 20.1477C11.9274 19.5832 12.0869 18.945 12.0869 18.3068V17.6686C12.0869 17.0305 11.9028 16.4045 11.5837 15.84C11.2646 15.2755 10.7983 14.8214 10.3074 14.5391L10.0619 14.3795C9.77964 14.22 9.57101 13.9623 9.4851 13.6432C9.41146 13.3241 9.44828 12.9927 9.60783 12.7105L9.8901 12.2441C10.0496 11.9618 10.3196 11.7532 10.6265 11.6795C10.9456 11.5936 11.2769 11.6305 11.596 11.8145L11.7433 11.8882C12.8478 12.5386 14.296 12.5386 15.4251 11.8882L15.9528 11.5936C16.5174 11.2623 16.9837 10.7959 17.3028 10.2436C17.6219 9.67909 17.7937 9.05318 17.7937 8.40273V8.18182C17.7937 7.86273 17.9287 7.54364 18.1496 7.31045C18.3828 7.08955 18.7019 6.95455 19.021 6.95455H19.561C19.8801 6.95455 20.1992 7.08955 20.4324 7.31045C20.6533 7.54364 20.7883 7.86273 20.7883 8.18182V8.415C20.7883 9.05318 20.9601 9.69136 21.2792 10.2559C21.5983 10.8082 22.0646 11.2745 22.6169 11.5936L23.1446 11.9005C24.2615 12.5509 25.7465 12.5386 26.7896 11.925L27.0106 11.8023C27.2928 11.6427 27.6365 11.5936 27.9433 11.6795C28.2624 11.7655 28.5324 11.9618 28.6919 12.2441L28.9619 12.7105C29.1215 12.9927 29.1706 13.3364 29.0846 13.6432C28.9987 13.95 28.8024 14.22 28.5078 14.3918L28.336 14.49C27.7715 14.8091 27.3051 15.2755 26.986 15.84C26.6669 16.3923 26.4951 17.0427 26.4951 17.6809V18.2945C26.4951 18.9327 26.6669 19.5709 26.986 20.1355C27.3051 20.7 27.7715 21.1664 28.3728 21.51L28.5201 21.5836C28.8024 21.7432 29.011 22.0255 29.0969 22.3323C29.1706 22.6514 29.1337 22.9827 28.9619 23.2773L28.7042 23.7436C28.5324 24.0259 28.2746 24.2223 27.9556 24.3082C27.6365 24.3941 27.2928 24.3573 26.986 24.1732L26.8387 24.0995C25.7219 23.4491 24.2737 23.4491 23.1569 24.0995L22.6292 24.4064C22.0646 24.7377 21.5983 25.1918 21.2792 25.7564C20.9601 26.3209 20.7883 26.9591 20.7883 27.5973V27.8182C20.7883 28.1495 20.6656 28.4564 20.4324 28.6895C20.1992 28.9227 19.8924 29.0455 19.561 29.0455H19.021C18.6896 29.0455 18.3828 28.9227 18.1374 28.6895C17.9042 28.4564 17.7815 28.1495 17.7815 27.8182V27.585C17.7815 26.9345 17.6096 26.3086 17.2906 25.7441C16.9715 25.1918 16.5051 24.7255 15.9528 24.4064L15.4251 24.0995Z" fill="#555555"/>
</svg>
